<svg xmlns="http://www.w3.org/2000/svg" width="24" height="20" viewBox="0 0 24 20">
  <path id="iconmonstr-sound-wave-8" d="M3.732,13h1.5s2.32-8.4,2.8-10.263A.941.941,0,0,1,9,2a1,1,0,0,1,.947.74c.581,2.466,3.11,13.908,3.11,13.908s1.6-6.441,1.943-7.891A1.044,1.044,0,0,1,16,8a1.117,1.117,0,0,1,1,.707c.312.841,1.675,4.287,1.677,4.293h1.591a2,2,0,1,1,0,2c-.939,0-1.856,0-2.266,0a.959.959,0,0,1-.928-.629l-.852-2.128s-1.828,7.367-2.25,9A.969.969,0,0,1,13,22a1,1,0,0,1-.976-.783C11.475,18.73,9.943,11.848,8.9,7.164c0,0-1.555,5.764-1.936,7.1A.93.93,0,0,1,6,15H3.732a2,2,0,1,1,0-2Z" transform="translate(0 -2)" fill="#fff" fill-rule="evenodd"/>
</svg>
