<svg xmlns="http://www.w3.org/2000/svg" width="22.001" height="24" viewBox="0 0 22.001 24">
  <path id="iconmonstr-school-11" d="M9.082,2.3a3,3,0,0,1,5.841.013,6.381,6.381,0,0,1,4.056,2.81c.748,1.2,1.054,2.393,1.553,6.089a2.537,2.537,0,0,1,1.912,1.76A29.427,29.427,0,0,1,23,18c.035,1.473-.4,2.64-1.881,3.131l-.01,0c-.5,3.078-3.527,2.848-4.527,2.859-1.444.009-2.692,0-4.576-.011-1.2,0-5.325.013-5.8-.016a3.249,3.249,0,0,1-3.3-2.829A2.7,2.7,0,0,1,1,18.336a33.3,33.3,0,0,1,.482-5.056,2.553,2.553,0,0,1,1.994-2.067c.47-3.648.8-5.189,1.868-6.588A6.414,6.414,0,0,1,9.082,2.3M6.255,7.126a42.657,42.657,0,0,0-.991,5.915c-.331.02-.67.032-1,.062-.688.073-.765.255-.845.727A30.813,30.813,0,0,0,3,18.4c.01.593.2.8.695.887.156.027.929.09,1.1.1C4.878,21.8,4.923,21.975,7.444,22c1.335.008,4.56-.011,4.56-.011,2.637.01,3.49.021,4.862.008,2.281-.022,2.273-.42,2.347-2.607.332-.029.664-.053,1-.091.836-.118.812-.542.784-1.39a31.41,31.41,0,0,0-.425-4.195.6.6,0,0,0-.569-.57,11.568,11.568,0,0,0-1.252-.1,43.641,43.641,0,0,0-.991-5.852C16.878,4.665,14.671,4,11.978,4c-2.65,0-4.843.628-5.723,3.128M18,17.989c-.012,1.923-.9,2.937-2.888,3q-3.109.028-6.217,0A2.718,2.718,0,0,1,6,18.059V13.991H18Zm-7-3H7c0,1.036-.023,2.071,0,3.106a1.723,1.723,0,0,0,1.915,1.89q3.089.031,6.176,0c1.383-.043,1.9-.565,1.909-2V14.991H13v3a1,1,0,0,1-2,0v-3Zm.446-8.2C9.5,6.944,8.494,7.568,8.234,12a.5.5,0,0,1-1-.019,16.219,16.219,0,0,1,.351-2.8c.359-1.542,1.033-2.742,2.543-3.185a8.312,8.312,0,0,1,3.749,0,3.684,3.684,0,0,1,2.5,3.037,15.714,15.714,0,0,1,.366,3.016.5.5,0,0,1-.993.01c-.306-3.1-.336-5.126-3.255-5.267l.676,2.335a1.195,1.195,0,1,1-2.337.025l.617-2.356ZM12,8.789a.6.6,0,1,1-.6.6.6.6,0,0,1,.6-.6m1.791-6.683a2,2,0,0,0-3.58-.005,15.367,15.367,0,0,1,3.58.005" transform="translate(-0.999)" fill="#fff" fill-rule="evenodd"/>
</svg>
