<svg xmlns="http://www.w3.org/2000/svg" width="822.879" height="937.922" viewBox="0 0 822.879 937.922">
  <g id="Group_1" data-name="Group 1" transform="translate(-582.169 -275.594)">
    <path id="Path_1" data-name="Path 1" d="M1010.715,1171.809l94.377-84.472s-26.189-26.038-68.243-68.172c-35.006-36.789-57.058-82.878-9.035-124.019s179.251-150.087,185.441-156.912,25.488-28.45,5.628-47.068-69.4-66.176-69.4-66.176L863.271,853.8s-88.21-76.023-135.531-129.433c-10.6-11.557-24.882-66.487,19.278-99.372s314.641-235.481,314.641-235.481,32.015-23.448,8.165-50.781c-19.9-20.212-67.691-63.134-67.691-63.134L664.791,517.513S501.944,637.162,633.5,808.073C786.266,952.591,1010.715,1171.809,1010.715,1171.809Z" fill="#fff"/>
    <path id="Path_2" data-name="Path 2" d="M859.007,766.949l286.006-222.477s94.858,85.7,113.115,108.829c28.162,38.243,18.666,103.45,18.123,103.857-84.863,69.905-200.9,167.233-200.9,167.233s-19.119,14.121-4.574,41.966c19.635,21.866,76.059,73.329,76.059,73.329l232.5-202.427s44.907-87.836,16.017-169.356c-15.715-34.911-17.592-46.11-65.114-99.769-65.259-67.9-204.021-186.45-204.021-186.45L796.806,653.3s-20.349,17.224-12.567,43.422C801.522,713.29,859.007,766.949,859.007,766.949Z" fill="#fff"/>
    <path id="Path_7" data-name="Path 7" d="M786.121,677.349s-9.283,25.616,3.14,50.258c17.715,17.671,69.091,65.133,69.091,65.133l286.728-227.466s66.5,62.895,105.69,101.619c6.052,12.412,23.266,39.727,25.634,94.789" fill="none" stroke="#fff" stroke-width="6"/>
    <path id="Path_8" data-name="Path 8" d="M1073.676,349.989s4.7,21.1,4.563,27.661c-.149,2.667.01,15.819.01,15.819s-2.248,6.246-29.767,27.324-309.664,232.26-309.664,232.26-32.879,33.95-9.641,84.308" fill="none" stroke="#fff" stroke-width="6"/>
    <path id="Path_9" data-name="Path 9" d="M1070.914,934.965c-5.678,13.106-10.179,26.8-2.338,52.678,5.591,20,77.457,75.611,77.457,75.611l236.145-206.4s20-68.085,19.759-125.734" fill="none" stroke="#fff" stroke-width="6"/>
    <path id="Path_10" data-name="Path 10" d="M1223.9,704.364s6.466,32.051,3.731,42.25-17.4,23.848-17.4,23.848L1029.21,924.013s-36.765,30.806-17.674,72.937" fill="none" stroke="#fff" stroke-width="6"/>
    <path id="Path_11" data-name="Path 11" d="M585.824,691.907s2.653,106.737,50.719,153.033c.017-.383,373.966,361.863,373.966,361.863l92.043-82.417v-36.7" fill="none" stroke="#fff" stroke-width="6"/>
  </g>
</svg>
