<svg xmlns="http://www.w3.org/2000/svg" xmlns:xlink="http://www.w3.org/1999/xlink" width="1623" height="1623" viewBox="0 0 1623 1623">
  <defs>
    <linearGradient id="linear-gradient" y1="0.5" x2="1" y2="0.5" gradientUnits="objectBoundingBox">
      <stop offset="0" stop-color="#6c72cb"/>
      <stop offset="1" stop-color="#5b60a8"/>
    </linearGradient>
  </defs>
  <g id="Group_3" data-name="Group 3" transform="translate(-2935.001 887.999)">
    <path id="Path_8" data-name="Path 8" d="M726.7,1618.623a805.991,805.991,0,0,1-237.555-62.163c-24.5-10.613-48.761-22.6-72.121-35.614-23.18-12.919-46.013-27.163-67.864-42.336-21.74-15.1-42.993-31.458-63.171-48.623-20.139-17.131-39.668-35.459-58.043-54.473l369.569-338.362v295.061a194.371,194.371,0,0,0,33.955-23.638,221.217,221.217,0,0,0,27.223-28.3,281.234,281.234,0,0,0,36.968-60.978c4.055-8.979,7.791-18.349,11.105-27.85,2.65-7.6,5.035-15.3,7.089-22.878,3.452-12.737,4.8-20.852,4.856-21.191l37.677-211.1,409.537-405.337L1177.555,485,49.12,1090.188c-7.951-21.744-15.042-44.1-21.079-66.44-6.1-22.581-11.282-45.722-15.4-68.78-4.161-23.327-7.336-47.162-9.438-70.843C1.079,860.138,0,835.7,0,811.5a824.517,824.517,0,0,1,4.19-82.972,813.708,813.708,0,0,1,12.3-80.573c5.351-26.147,12.079-52.312,20-77.77,7.827-25.168,17.008-50.253,27.288-74.559,9.512-22.489,20.2-44.852,31.763-66.467a248.685,248.685,0,0,0,385.937-95.933,247.235,247.235,0,0,0,14.479-46.646A248.042,248.042,0,0,0,449.506,85.017c15.147-7.56,30.665-14.708,46.121-21.245,24.307-10.281,49.393-19.463,74.558-27.289,25.468-7.921,51.633-14.648,77.769-20a813.869,813.869,0,0,1,80.575-12.3,823.695,823.695,0,0,1,165.942,0,813.932,813.932,0,0,1,80.574,12.3c26.132,5.347,52.3,12.074,77.769,20,25.169,7.828,50.252,17.009,74.557,27.289,24.075,10.183,47.941,21.679,70.937,34.172,22.849,12.414,45.361,26.089,66.909,40.648,21.461,14.5,42.48,30.217,62.472,46.716,19.953,16.467,39.342,34.089,57.628,52.375s35.915,37.682,52.375,57.628c16.509,20,32.226,41.023,46.715,62.472,14.567,21.562,28.243,44.073,40.649,66.908,12.488,22.99,23.985,46.856,34.172,70.936,10.274,24.295,19.455,49.379,27.288,74.559,7.918,25.46,14.646,51.626,20,77.77a813.2,813.2,0,0,1,12.3,80.573,823.68,823.68,0,0,1,0,165.942,813.489,813.489,0,0,1-12.3,80.575c-5.349,26.14-12.077,52.305-20,77.768-7.833,25.181-17.014,50.266-27.288,74.558-10.181,24.069-21.678,47.936-34.172,70.937-12.4,22.835-26.081,45.346-40.649,66.908-14.491,21.452-30.208,42.47-46.715,62.473-16.458,19.942-34.08,39.33-52.375,57.627s-37.684,35.916-57.628,52.376c-20,16.5-41.017,32.221-62.472,46.715-21.56,14.566-44.072,28.242-66.909,40.649-23,12.493-46.867,23.99-70.937,34.171-24.293,10.275-49.378,19.456-74.557,27.289-25.47,7.92-51.636,14.648-77.769,20a814.069,814.069,0,0,1-80.574,12.3,823.671,823.671,0,0,1-167.769-.187ZM349.319,646.631a265.672,265.672,0,0,0-41.771,7.6,161.673,161.673,0,0,0-38.189,15.422A111.161,111.161,0,0,0,253.11,681a91.98,91.98,0,0,0-13.551,14.154c2.145.616,258.859,89.438,261.441,90.332L688.95,695.156,456.135,649.337c-.073-.012-7.384-1.2-19.088-2.368-10.842-1.08-27.826-2.368-47.167-2.369h-.013A387.893,387.893,0,0,0,349.319,646.631Z" transform="translate(2935.001 -887.999)" fill="url(#linear-gradient)"/>
    <path id="Path_9" data-name="Path 9" d="M59,236.5C59,129.632,145.633,43,252.5,43S446,129.632,446,236.5,359.366,430,252.5,430,59,343.366,59,236.5Z" transform="translate(2935.001 -887.999)" fill="#cb69c1"/>
  </g>
</svg>
