<svg xmlns="http://www.w3.org/2000/svg" width="281.092" height="281.092" viewBox="0 0 281.092 281.092">
  <path id="iconmonstr-x-mark-circle-thin" d="M140.546,0A140.546,140.546,0,1,1,0,140.546,140.612,140.612,0,0,1,140.546,0Zm0,11.712A128.834,128.834,0,1,1,11.712,140.546,128.9,128.9,0,0,1,140.546,11.712Zm0,120.553,61.992-61.992,8.281,8.28-61.992,61.992,61.992,61.992-8.281,8.281-61.992-61.992L78.553,210.819l-8.28-8.281,61.992-61.992L70.273,78.553l8.28-8.28,61.992,61.992Z" fill="#fff" fill-rule="evenodd"/>
</svg>
