<svg xmlns="http://www.w3.org/2000/svg" width="512" height="465.454" viewBox="0 0 512 465.454">
  <g id="calendar" transform="translate(0 -23.273)">
    <g id="Group_8" data-name="Group 8">
      <g id="Group_7" data-name="Group 7">
        <path id="Path_10" data-name="Path 10" d="M500.364,221.091c-6.982,0-11.636,4.655-11.636,11.636v128A23.342,23.342,0,0,1,465.455,384H442.182c-19.782,0-34.909,15.127-34.909,34.909v23.273A23.342,23.342,0,0,1,384,465.454H34.909c-6.982,0-11.636-4.655-11.636-11.636V232.727c0-6.982-4.655-11.636-11.636-11.636S0,225.745,0,232.727V453.818c0,19.782,15.127,34.909,34.909,34.909H399.127c15.127,0,30.255-5.818,40.727-17.455l54.691-54.691C505.018,406.108,512,390.981,512,375.854V232.728C512,225.745,507.345,221.091,500.364,221.091ZM429.382,450.327c0-2.327,1.164-4.655,1.164-8.145V418.909c0-6.982,4.655-11.636,11.636-11.636h23.273a22.707,22.707,0,0,0,8.145-1.164Z" fill="#1a8641"/>
      </g>
    </g>
    <g id="Group_10" data-name="Group 10">
      <g id="Group_9" data-name="Group 9">
        <path id="Path_11" data-name="Path 11" d="M477.091,58.182H395.636V34.909c0-6.982-4.655-11.636-11.636-11.636s-11.636,4.655-11.636,11.636V58.182H139.636V34.909c0-6.982-4.655-11.636-11.636-11.636s-11.636,4.655-11.636,11.636V58.182H34.909C15.127,58.182,0,73.309,0,93.091v93.091c0,6.982,4.655,11.636,11.636,11.636H500.363c6.982,0,11.636-4.655,11.636-11.636V93.091C512,73.309,496.873,58.182,477.091,58.182Zm11.636,116.363H23.273V93.091c0-6.982,4.655-11.636,11.636-11.636h81.455v26.764c-6.982,3.491-11.636,11.636-11.636,19.782a23.272,23.272,0,1,0,46.545,0c0-8.145-4.655-16.291-11.636-19.782V81.455H372.364v26.764c-6.982,3.491-11.636,11.636-11.636,19.782a23.272,23.272,0,1,0,46.545,0c0-8.145-4.655-16.291-11.636-19.782V81.455h81.455c6.982,0,11.636,4.655,11.636,11.636v81.454Z" fill="#1a8641"/>
      </g>
    </g>
    <g id="Group_12" data-name="Group 12">
      <g id="Group_11" data-name="Group 11">
        <circle id="Ellipse_2" data-name="Ellipse 2" cx="23.273" cy="23.273" r="23.273" transform="translate(186.182 244.363)" fill="#1a8641"/>
      </g>
    </g>
    <g id="Group_14" data-name="Group 14">
      <g id="Group_13" data-name="Group 13">
        <circle id="Ellipse_3" data-name="Ellipse 3" cx="23.273" cy="23.273" r="23.273" transform="translate(279.272 244.363)" fill="#1a8641"/>
      </g>
    </g>
    <g id="Group_16" data-name="Group 16">
      <g id="Group_15" data-name="Group 15">
        <circle id="Ellipse_4" data-name="Ellipse 4" cx="23.273" cy="23.273" r="23.273" transform="translate(372.363 244.363)" fill="#1a8641"/>
      </g>
    </g>
    <g id="Group_18" data-name="Group 18">
      <g id="Group_17" data-name="Group 17">
        <circle id="Ellipse_5" data-name="Ellipse 5" cx="23.273" cy="23.273" r="23.273" transform="translate(93.091 349.091)" fill="#1a8641"/>
      </g>
    </g>
    <g id="Group_20" data-name="Group 20">
      <g id="Group_19" data-name="Group 19">
        <circle id="Ellipse_6" data-name="Ellipse 6" cx="23.273" cy="23.273" r="23.273" transform="translate(186.182 349.091)" fill="#1a8641"/>
      </g>
    </g>
    <g id="Group_22" data-name="Group 22">
      <g id="Group_21" data-name="Group 21">
        <circle id="Ellipse_7" data-name="Ellipse 7" cx="23.273" cy="23.273" r="23.273" transform="translate(279.272 349.091)" fill="#1a8641"/>
      </g>
    </g>
  </g>
</svg>
