<svg xmlns="http://www.w3.org/2000/svg" width="512.009" height="512.003" viewBox="0 0 512.009 512.003">
  <g id="email" transform="translate(0 -0.003)">
    <g id="Group_24" data-name="Group 24">
      <g id="Group_23" data-name="Group 23">
        <path id="Path_12" data-name="Path 12" d="M507.078,205.614A8.528,8.528,0,0,0,498,206.783L303.08,369.215a8.533,8.533,0,0,0,.794,13.7l194.918,127.7a8.528,8.528,0,0,0,13.2-7.142V213.337A8.534,8.534,0,0,0,507.078,205.614ZM494.935,487.675,322.869,374.941,494.935,231.547Z" fill="#1a8641"/>
      </g>
    </g>
    <g id="Group_26" data-name="Group 26">
      <g id="Group_25" data-name="Group 25">
        <path id="Path_13" data-name="Path 13" d="M208.915,369.215,14,206.783A8.535,8.535,0,0,0,0,213.337V503.47a8.532,8.532,0,0,0,13.2,7.142l194.918-127.7a8.533,8.533,0,0,0,.794-13.7ZM17.068,487.683V231.555L189.134,374.949Z" fill="#1a8641"/>
      </g>
    </g>
    <g id="Group_28" data-name="Group 28">
      <g id="Group_27" data-name="Group 27">
        <path id="Path_14" data-name="Path 14" d="M354.4,0H157.6a38.174,38.174,0,0,0-38.127,38.135v196.8A38.174,38.174,0,0,0,157.6,273.069h59.7l31.607,47.4a8.537,8.537,0,0,0,14.2,0l31.6-47.4h59.7a38.18,38.18,0,0,0,38.135-38.135V38.139A38.18,38.18,0,0,0,354.4,0ZM375.46,234.935A21.092,21.092,0,0,1,354.391,256H290.126a8.545,8.545,0,0,0-7.1,3.8l-27.034,40.55L228.958,259.8a8.545,8.545,0,0,0-7.1-3.8H157.593a21.09,21.09,0,0,1-21.06-21.069V38.139a21.085,21.085,0,0,1,21.06-21.069h196.8a21.092,21.092,0,0,1,21.069,21.069v196.8Z" fill="#1a8641"/>
      </g>
    </g>
    <g id="Group_30" data-name="Group 30">
      <g id="Group_29" data-name="Group 29">
        <path id="Path_15" data-name="Path 15" d="M256,34.137a102.4,102.4,0,1,0,102.4,102.4A102.514,102.514,0,0,0,256,34.137Zm0,187.733a85.333,85.333,0,1,1,85.333-85.333A85.43,85.43,0,0,1,256,221.87Z" fill="#1a8641"/>
      </g>
    </g>
    <g id="Group_32" data-name="Group 32">
      <g id="Group_31" data-name="Group 31">
        <path id="Path_16" data-name="Path 16" d="M256,68.27A34.133,34.133,0,1,0,290.134,102.4,34.167,34.167,0,0,0,256,68.27Zm0,51.2A17.067,17.067,0,1,1,273.068,102.4,17.084,17.084,0,0,1,256,119.47Z" fill="#1a8641"/>
      </g>
    </g>
    <g id="Group_34" data-name="Group 34">
      <g id="Group_33" data-name="Group 33">
        <path id="Path_17" data-name="Path 17" d="M339.125,185.39c-16.051-19.6-47.9-31.787-83.115-31.787S188.947,165.789,172.9,185.39a8.532,8.532,0,0,0-.358,10.351,102.252,102.252,0,0,0,166.947,0A8.558,8.558,0,0,0,339.125,185.39ZM256,221.87a85.481,85.481,0,0,1-65.289-30.5c14.037-12.74,38.733-20.7,65.289-20.7s51.251,7.97,65.289,20.7A85.478,85.478,0,0,1,256,221.87Z" fill="#1a8641"/>
      </g>
    </g>
    <g id="Group_36" data-name="Group 36">
      <g id="Group_35" data-name="Group 35">
        <path id="Path_18" data-name="Path 18" d="M131.628,106.747a8.513,8.513,0,0,0-9.071,1.152L3.091,206.766a8.532,8.532,0,0,0,5.444,15.1H128a8.524,8.524,0,0,0,8.525-8.533V114.47A8.547,8.547,0,0,0,131.628,106.747ZM119.468,204.8H32.232l87.236-72.192Z" fill="#1a8641"/>
      </g>
    </g>
    <g id="Group_38" data-name="Group 38">
      <g id="Group_37" data-name="Group 37">
        <path id="Path_19" data-name="Path 19" d="M508.9,206.766,389.437,107.9a8.527,8.527,0,0,0-13.969,6.571v98.867A8.531,8.531,0,0,0,384,221.87H503.468a8.533,8.533,0,0,0,5.436-15.1ZM392.535,204.8V132.611L479.771,204.8Z" fill="#1a8641"/>
      </g>
    </g>
    <g id="Group_40" data-name="Group 40">
      <g id="Group_39" data-name="Group 39">
        <path id="Path_20" data-name="Path 20" d="M503.468,204.8H384a8.531,8.531,0,0,0-8.533,8.533v21.6A21.092,21.092,0,0,1,354.4,256H290.134a8.545,8.545,0,0,0-7.1,3.8L256,300.35,228.966,259.8a8.545,8.545,0,0,0-7.1-3.8H157.593a21.09,21.09,0,0,1-21.06-21.069v-21.6A8.531,8.531,0,0,0,128,204.8H8.535A8.531,8.531,0,0,0,0,213.336V503.47A8.531,8.531,0,0,0,8.535,512H503.468A8.536,8.536,0,0,0,512,503.47V213.337A8.53,8.53,0,0,0,503.468,204.8Zm-8.533,290.134H17.068V221.87h102.4v13.065A38.174,38.174,0,0,0,157.6,273.07H217.3l31.6,47.4c3.166,4.753,11.034,4.753,14.2,0l31.6-47.4h59.7a38.18,38.18,0,0,0,38.135-38.135V221.87h102.4V494.937Z" fill="#1a8641"/>
      </g>
    </g>
    <g id="Group_42" data-name="Group 42">
      <g id="Group_41" data-name="Group 41">
        <path id="Path_21" data-name="Path 21" d="M503.477,204.8H384.01a8.531,8.531,0,0,0-8.533,8.533v21.6A21.092,21.092,0,0,1,354.408,256H290.144a8.545,8.545,0,0,0-7.1,3.8L256.01,300.35,228.976,259.8a8.545,8.545,0,0,0-7.1-3.8H157.6a21.09,21.09,0,0,1-21.06-21.069v-21.6a8.531,8.531,0,0,0-8.533-8.533H8.543A8.531,8.531,0,0,0,.01,213.336V503.47a8.528,8.528,0,0,0,13.2,7.142L236.477,364.325a35.606,35.606,0,0,1,39.049.009L498.792,510.612a8.537,8.537,0,0,0,13.217-7.142V213.337A8.53,8.53,0,0,0,503.477,204.8Zm-8.542,282.872L284.878,350.058a52.664,52.664,0,0,0-57.754-.008L17.068,487.675V221.87h102.4v13.065A38.174,38.174,0,0,0,157.6,273.07H217.3l31.6,47.4c3.166,4.753,11.034,4.753,14.2,0l31.6-47.4h59.7a38.18,38.18,0,0,0,38.135-38.135V221.87h102.4v265.8Z" fill="#1a8641"/>
      </g>
    </g>
  </g>
</svg>
