<svg xmlns="http://www.w3.org/2000/svg" width="485.15" height="452.809" viewBox="0 0 485.15 452.809">
  <g id="Page-1" transform="translate(0 0)">
    <g id="_024---Location-Points" data-name="024---Location-Points" transform="translate(0 0)">
      <path id="Shape" d="M115.03,5a97.03,97.03,0,1,0,97.03,97.03A97.03,97.03,0,0,0,115.03,5Zm0,177.888a80.858,80.858,0,1,1,80.858-80.858A80.858,80.858,0,0,1,115.03,182.888Z" transform="translate(127.545 35.432)" fill="#1a8641"/>
      <path id="Shape-2" data-name="Shape" d="M388.12,64.689a94.216,94.216,0,0,0-27.047,3.954,136.6,136.6,0,0,0-237,0A94.256,94.256,0,0,0,97.03,64.689,97.838,97.838,0,0,0,0,162.77,187.4,187.4,0,0,0,29.449,262.5c.639,1.059,1.269,2.005,1.941,3.008l.469.7a245.324,245.324,0,0,0,57.086,61.379V371.95H72.773a8.086,8.086,0,0,0,0,16.172h48.515a8.086,8.086,0,0,0,0-16.172H105.116V327.591a244.588,244.588,0,0,0,44.068-43.316c.348.526.671,1.083,1.027,1.617l.655.995a350.974,350.974,0,0,0,83.624,89.251v60.5H210.232a8.086,8.086,0,1,0,0,16.172h64.687a8.086,8.086,0,0,0,0-16.172H250.661v-60.5a350.634,350.634,0,0,0,83.583-89.2l.7-1.051c.38-.55.671-1.059,1.027-1.617a244.589,244.589,0,0,0,44.068,43.324V371.95H363.862a8.086,8.086,0,0,0,0,16.172h48.515a8.086,8.086,0,0,0,0-16.172H396.205V327.591a244.919,244.919,0,0,0,57.029-61.3l.526-.809c.671-1,1.3-1.949,1.876-2.9a187.526,187.526,0,0,0,29.513-99.811,98.1,98.1,0,0,0-8.539-40.235A97.086,97.086,0,0,0,388.12,64.689Zm-10.366,49.663a47.149,47.149,0,0,1,9.8-1.148,48.515,48.515,0,0,1,0,97.03,46.76,46.76,0,0,1-16.98-3.137,255.8,255.8,0,0,0,9.46-68.39,139.784,139.784,0,0,0-2.28-24.354ZM114.447,206.684a46.534,46.534,0,0,1-17.983,3.55,48.515,48.515,0,0,1,0-97.03,46.461,46.461,0,0,1,10.892,1.407,139.982,139.982,0,0,0-2.24,24.1,255.851,255.851,0,0,0,9.331,67.977ZM97.03,313.409A233.2,233.2,0,0,1,45.386,257.35l-.566-.809c-.517-.809-1.011-1.5-1.561-2.426A171.589,171.589,0,0,1,16.172,162.77,82.1,82.1,0,0,1,23.32,129.1a80.907,80.907,0,0,1,73.71-48.24,78.545,78.545,0,0,1,19.624,2.507,135.52,135.52,0,0,0-5.6,15.412,63.069,63.069,0,0,0-14.595-1.747,64.687,64.687,0,0,0,0,129.373,63.546,63.546,0,0,0,22.753-4.31,284.4,284.4,0,0,0,21.1,47.116,235.208,235.208,0,0,1-43.291,44.2ZM321.5,276.9l-.809,1.172a341.392,341.392,0,0,1-78.117,83.915,341.738,341.738,0,0,1-78.182-83.971l-.744-1.116c-.76-1.14-1.52-2.256-2.361-3.728a252.391,252.391,0,0,1-40-134.467,121.287,121.287,0,0,1,242.575,0,252.77,252.77,0,0,1-40.146,134.718c-.7,1.221-1.455,2.3-2.215,3.477Zm120.325-22.713c-.485.809-.978,1.536-1.5,2.313l-.615.922a232.766,232.766,0,0,1-51.6,55.994,234.239,234.239,0,0,1-43.283-44.205,286.962,286.962,0,0,0,20.958-46.72,63.708,63.708,0,0,0,21.759,3.914,64.687,64.687,0,0,0,0-129.373,63.4,63.4,0,0,0-13.52,1.52A133.816,133.816,0,0,0,368.5,83.367a78.594,78.594,0,0,1,19.624-2.507,80.923,80.923,0,0,1,73.718,48.248,82.152,82.152,0,0,1,7.14,33.661,171.718,171.718,0,0,1-27.152,91.418Z" transform="translate(0 0)" fill="#1a8641"/>
    </g>
  </g>
</svg>
