<svg xmlns="http://www.w3.org/2000/svg" width="512" height="512" viewBox="0 0 512 512">
  <g id="one-way" transform="translate(0 0)">
    <g id="Group_2" data-name="Group 2">
      <g id="Group_1" data-name="Group 1">
        <path id="Path_1" data-name="Path 1" d="M437.019,74.981A256,256,0,0,0,0,256,255.346,255.346,0,0,0,83.535,445.191a7.5,7.5,0,1,0,10.1-11.076A241.613,241.613,0,0,1,14.99,256C14.99,123.106,123.106,14.99,256,14.99S497.01,123.107,497.01,256,388.893,497.009,256,497.009a240.969,240.969,0,0,1-119.624-31.734,7.495,7.495,0,0,0-7.451,13.007,256.022,256.022,0,0,0,308.094-403.3Z" fill="#1a8641"/>
      </g>
    </g>
    <g id="Group_4" data-name="Group 4">
      <g id="Group_3" data-name="Group 3">
        <path id="Path_2" data-name="Path 2" d="M256,56.937a201.755,201.755,0,0,0-24.839,1.536,7.494,7.494,0,1,0,1.852,14.874A187.052,187.052,0,0,1,256,71.927C357.5,71.927,440.075,154.5,440.075,256S357.5,440.075,256,440.075,71.927,357.5,71.927,256A183.821,183.821,0,0,1,184.354,86.391a7.5,7.5,0,1,0-5.84-13.806A198.788,198.788,0,0,0,56.937,256c0,109.764,89.3,199.064,199.064,199.064S455.065,365.765,455.065,256,365.765,56.937,256,56.937Z" fill="#1a8641"/>
      </g>
    </g>
    <g id="Group_6" data-name="Group 6">
      <g id="Group_5" data-name="Group 5">
        <path id="Path_3" data-name="Path 3" d="M388.38,242.7l-101.1-70.539a16.221,16.221,0,0,0-25.5,13.3v20.1H138.723a22.065,22.065,0,0,0-22.04,22.04v42.005a22.065,22.065,0,0,0,22.04,22.04H261.778v34.9a16.213,16.213,0,0,0,25.5,13.3l101.1-70.539a16.224,16.224,0,0,0,0-26.609ZM379.8,257.011l-101.1,70.54a1.232,1.232,0,0,1-1.937-1.01V289.146a12.5,12.5,0,0,0-12.491-12.491H138.723a7.058,7.058,0,0,1-7.05-7.05V227.6a7.058,7.058,0,0,1,7.05-7.05H264.277a12.5,12.5,0,0,0,12.491-12.491v-22.6a1.232,1.232,0,0,1,1.937-1.01l101.1,70.539a1.229,1.229,0,0,1,0,2.019Z" fill="#1a8641"/>
      </g>
    </g>
  </g>
</svg>
