<svg xmlns="http://www.w3.org/2000/svg" width="459.642" height="484.004" viewBox="0 0 459.642 484.004">
  <g id="origin" transform="translate(-25.774 -23.749)">
    <path id="Path_7" data-name="Path 7" d="M449.979,27.524A10.528,10.528,0,0,0,438.556,24.3L39.547,157.7a10.522,10.522,0,0,0-3.169,18.253l102.1,80.229v75.329a10.516,10.516,0,0,0,16.985,8.3l44.942-34.98,64.049,50.329a10.528,10.528,0,0,0,15.734-3.223L451.14,39.3a10.528,10.528,0,0,0-1.16-11.772Zm-67.657,37.77L149.194,237.842l-84.461-66.37ZM159.523,310V272.72l23.833,18.728ZM267.7,330.949l-101.35-79.627L409.739,71.174Z" transform="translate(32.996 0)" fill="#1a8641"/>
    <path id="Path_8" data-name="Path 8" d="M46.762,96.953a10.528,10.528,0,0,0-13.227,6.818c-2.682,8.381-5.195,17.31-7.455,26.538a10.524,10.524,0,0,0,20.442,5.014c2.152-8.76,4.527-17.219,7.058-25.144a10.516,10.516,0,0,0-6.818-13.227Z" transform="translate(0 364.41)" fill="#1a8641"/>
    <path id="Path_9" data-name="Path 9" d="M131.78,125.138a61,61,0,0,0-40.355,2.092A107.483,107.483,0,0,1,109.36,87.9,10.52,10.52,0,1,0,92.83,74.88c-1.2,1.529-23.681,30.5-24.005,65.74a150.85,150.85,0,0,0-38.052,50.089A10.524,10.524,0,0,0,49.561,200.2a145.741,145.741,0,0,1,23.148-34.27q.7,2.11,1.545,4.209a51.6,51.6,0,0,0,52.981,34.024A40.174,40.174,0,0,0,162.629,167.6C165.082,148.965,152.4,131.493,131.78,125.138Zm9.986,39.718a19.45,19.45,0,0,1-17.153,18.428,30.549,30.549,0,0,1-30.819-20.965,53.441,53.441,0,0,1-3.114-11.141,43.584,43.584,0,0,1,34.9-5.958c10.618,3.3,17.273,11.375,16.185,19.636Z" transform="translate(19.38 236.173)" fill="#1a8641"/>
  </g>
</svg>
