<svg xmlns="http://www.w3.org/2000/svg" width="511.989" height="512" viewBox="0 0 511.989 512">
  <g id="phone" transform="translate(-0.006)">
    <g id="Group_44" data-name="Group 44">
      <g id="Group_43" data-name="Group 43">
        <path id="Path_22" data-name="Path 22" d="M129.038,0a10,10,0,0,0,0,20c56.493,0,102.453,47.153,102.453,105.115a10,10,0,0,0,20,0C251.494,56.127,196.56,0,129.038,0Z" fill="#1a8641"/>
      </g>
    </g>
    <g id="Group_46" data-name="Group 46">
      <g id="Group_45" data-name="Group 45">
        <path id="Path_23" data-name="Path 23" d="M129.005,47.447a10,10,0,0,0,0,20c30.935,0,56.1,25.869,56.1,57.666a10,10,0,0,0,20,0C205.11,82.289,170.969,47.447,129.005,47.447Z" fill="#1a8641"/>
      </g>
    </g>
    <g id="Group_48" data-name="Group 48">
      <g id="Group_47" data-name="Group 47">
        <path id="Path_24" data-name="Path 24" d="M129.2,91.155a10,10,0,1,0,0,20c7.227,0,13.1,6.124,13.1,13.652a10,10,0,0,0,20,0C162.307,106.252,147.454,91.155,129.2,91.155Z" fill="#1a8641"/>
      </g>
    </g>
    <g id="Group_50" data-name="Group 50">
      <g id="Group_49" data-name="Group 49">
        <path id="Path_25" data-name="Path 25" d="M458.489,79.265H436.32a10,10,0,1,0,0,20h22.169a33.542,33.542,0,0,1,33.5,33.5V268.53A33.454,33.454,0,0,1,479.251,294.8V268.642a42.4,42.4,0,0,0-34.617-41.67l-6.465-1.205a45.13,45.13,0,0,0,2.231-14.025V188.76a45.318,45.318,0,1,0-90.637,0v22.982a45.159,45.159,0,0,0,2.231,14.025l-6.465,1.205a42.4,42.4,0,0,0-34.617,41.67v28.993a33.519,33.519,0,0,1-16.941-29.105V132.771a33.542,33.542,0,0,1,33.5-33.5h23.836a10,10,0,1,0,0-20H327.475a53.567,53.567,0,0,0-53.506,53.506V268.53a53.567,53.567,0,0,0,53.506,53.506H377.8v28.755a10,10,0,0,0,17.051,7.1l36.076-35.85h27.561a53.567,53.567,0,0,0,53.506-53.506V132.771A53.567,53.567,0,0,0,458.489,79.265ZM369.764,188.76a25.316,25.316,0,1,1,50.633,0v22.982a25.316,25.316,0,1,1-50.633,0Zm89.482,113.253c-.253.006-.5.019-.759.019H426.8v0a10,10,0,0,0-7.05,2.906L397.8,326.754v-14.72a10,10,0,0,0-10-10H330.915V268.641A22.4,22.4,0,0,1,349.2,246.634l14.1-2.629a45.223,45.223,0,0,0,63.573,0l14.1,2.629a22.394,22.394,0,0,1,18.281,22.008v33.372Z" fill="#1a8641"/>
      </g>
    </g>
    <g id="Group_52" data-name="Group 52">
      <g id="Group_51" data-name="Group 51">
        <path id="Path_26" data-name="Path 26" d="M396.051,82.2a9.995,9.995,0,1,0,2.931,7.071A10.031,10.031,0,0,0,396.051,82.2Z" fill="#1a8641"/>
      </g>
    </g>
    <g id="Group_54" data-name="Group 54">
      <g id="Group_53" data-name="Group 53">
        <path id="Path_27" data-name="Path 27" d="M185.878,336.437a10,10,0,1,0,2.93,7.071A10.059,10.059,0,0,0,185.878,336.437Z" fill="#1a8641"/>
      </g>
    </g>
    <g id="Group_56" data-name="Group 56">
      <g id="Group_55" data-name="Group 55">
        <path id="Path_28" data-name="Path 28" d="M404.784,426.87l-76.62-76.621a30.02,30.02,0,0,0-38.15-3.551l-48.9,33.438a10.005,10.005,0,0,1-12.716-1.185l-16.171-16.172a10,10,0,1,0-14.145,14.145L214.251,393.1a30.018,30.018,0,0,0,38.15,3.551l48.9-33.437a10.005,10.005,0,0,1,12.716,1.184l76.621,76.621a10.015,10.015,0,0,1,0,14.145,126.156,126.156,0,0,1-178.209,0L56.848,299.576a126.016,126.016,0,0,1,0-178.212,10,10,0,0,1,14.143,0l76.62,76.621A10.009,10.009,0,0,1,148.8,210.7l-33.436,48.9a30.018,30.018,0,0,0,3.55,38.15l24.308,24.308a10,10,0,1,0,14.145-14.145l-24.308-24.308a10.006,10.006,0,0,1-1.184-12.715l33.437-48.9a30.021,30.021,0,0,0-3.552-38.15l-76.62-76.621a30.04,30.04,0,0,0-42.433,0c-56.931,56.932-56.931,149.567,0,206.5L198.286,469.3a146.18,146.18,0,0,0,206.5,0A30.039,30.039,0,0,0,404.784,426.87Z" fill="#1a8641"/>
      </g>
    </g>
    <g id="Group_58" data-name="Group 58">
      <g id="Group_57" data-name="Group 57">
        <path id="Path_29" data-name="Path 29" d="M134.727,245.919,74.1,185.293a10,10,0,0,0-14.145,14.145l60.627,60.626a10,10,0,0,0,14.144-14.145Z" fill="#1a8641"/>
      </g>
    </g>
    <g id="Group_60" data-name="Group 60">
      <g id="Group_59" data-name="Group 59">
        <path id="Path_30" data-name="Path 30" d="M366.761,477.952l-63.789-63.789a10,10,0,0,0-14.145,14.145L352.616,492.1a10,10,0,1,0,14.145-14.145Z" fill="#1a8641"/>
      </g>
    </g>
  </g>
</svg>
