<svg id="two-way" xmlns="http://www.w3.org/2000/svg" width="512" height="512" viewBox="0 0 512 512">
  <path id="Path_4" data-name="Path 4" d="M151,416h60a10,10,0,0,0,10-10V206h20a10,10,0,0,0,8.32-15.547l-60-90a10,10,0,0,0-16.64,0l-60,90A10,10,0,0,0,121,206h20V406A10,10,0,0,0,151,416ZM139.686,186,181,124.027,222.314,186H211a10,10,0,0,0-10,10V396H161V196a10,10,0,0,0-10-10Z" fill="#1a8641"/>
  <path id="Path_5" data-name="Path 5" d="M361,96H301a10,10,0,0,0-10,10V306H271a10,10,0,0,0-8.32,15.547l60,90a10,10,0,0,0,16.64,0l60-90A10,10,0,0,0,391,306H371V106A10,10,0,0,0,361,96Zm11.314,230L331,387.973,289.686,326H301a10,10,0,0,0,10-10V116h40V316a10,10,0,0,0,10,10Z" fill="#1a8641"/>
  <circle id="Ellipse_1" data-name="Ellipse 1" cx="10" cy="10" r="10" transform="translate(420 420)" fill="#1a8641"/>
  <path id="Path_6" data-name="Path 6" d="M256,0A256,256,0,1,0,401.091,467a10,10,0,1,0-11.342-16.472A234.791,234.791,0,0,1,256,492C125.869,492,20,386.131,20,256S125.869,20,256,20,492,125.869,492,256a234.791,234.791,0,0,1-41.47,133.749A10,10,0,1,0,467,401.091,256.1,256.1,0,0,0,256,0Z" fill="#1a8641"/>
</svg>
